# xmcd
#
# Track frame offsets: 
#        150
#        35091
#        69963
#        105512
#        149433
#        183759
#        218077
#        249851
#        277226
#        307129
#
# Disc length: 4513 seconds
#
# Revision: 21
# Processed by: cddbd v1.5.2PL0 Copyright (c) Steve Scherf et al.
# Submitted via: ExactAudioCopyFreeDBPlugin 1.0
#
DISCID=92119f0a
DTITLE=Andreas Fröhlich - Eragon [CD07)
DYEAR=2005
DGENRE=Hörbuch
TTITLE0=Ankunft in Teirm (Teil 2)
TTITLE1=Ein alter Freund (Teil 1)
TTITLE2=Ein alter Freund (Teil 2)
TTITLE3=Ein alter Freund (Teil 3)
TTITLE4=Ein alter Freund (Teil 4)
TTITLE5=Ein alter Freund (Teil 5)
TTITLE6=Ein alter Freund (Teil 6)
TTITLE7=Ein alter Freund (Teil 7)
TTITLE8=Die Hexe und die Werkatze (Teil 1)
TTITLE9=Die Hexe und die Werkatze (Teil 2)
EXTD=
EXTT0=
EXTT1=
EXTT2=
EXTT3=
EXTT4=
EXTT5=
EXTT6=
EXTT7=
EXTT8=
EXTT9=
PLAYORDER=
